<svg xmlns="http://www.w3.org/2000/svg" xmlns:xlink="http://www.w3.org/1999/xlink" width="100" height="100" viewBox="0 0 100 100"><g><g transform="translate(50 50) scale(0.69 0.69) rotate(0) translate(-50 -50)" style="fill:#5e534b"><svg fill="#5e534b" xmlns="http://www.w3.org/2000/svg" xmlns:xlink="http://www.w3.org/1999/xlink" version="1.1" x="0px" y="0px" viewBox="0 0 16 16" style="enable-background:new 0 0 16 16;" xml:space="preserve"><g><polygon points="5.207,5.793 3.793,7.207 7,10.414 13.707,3.707 12.293,2.293 7,7.586  "></polygon><path d="M11.883,6.945C11.957,7.286,12,7.638,12,8c0,2.757-2.243,5-5,5s-5-2.243-5-5s2.243-5,5-5c0.908,0,1.75,0.262,2.485,0.687   l0.741-0.741C9.293,2.35,8.189,2,7,2C3.686,2,1,4.686,1,8s2.686,6,6,6s6-2.686,6-6c0-0.654-0.108-1.281-0.301-1.87L11.883,6.945z"></path></g></svg></g></g></svg>